<?xml version="1.0" encoding="utf-8"?>
<!-- Generator: Adobe Illustrator 18.1.1, SVG Export Plug-In . SVG Version: 6.00 Build 0)  -->
<svg version="1.2" baseProfile="tiny" id="Layer_1" xmlns="http://www.w3.org/2000/svg" xmlns:xlink="http://www.w3.org/1999/xlink"
	 x="0px" y="0px" viewBox="0 0 32 32" xml:space="preserve">
<path fill="#FFFFFF" d="M16,0C7.2,0,0,7.2,0,16s7.2,16,16,16s16-7.2,16-16S24.8,0,16,0z M13,21c-1.1,0-1.9-0.9-1.9-1.9
	c0-1.1,0.9-1.9,1.9-1.9c1.1,0,1.9,0.9,1.9,1.9C14.9,20.2,14,21,13,21z M18,21c0-4-3-6.9-7-6.9v-2c5,0,9,3.9,9,8.9H18z M22,21
	c0-6-5-10.9-11-10.9V8c7,0,13,6,13,13H22z"/>
</svg>
