<?xml version="1.0" encoding="utf-8"?>
<!-- Generator: Adobe Illustrator 18.1.1, SVG Export Plug-In . SVG Version: 6.00 Build 0)  -->
<svg version="1.2" baseProfile="tiny" id="Layer_1" xmlns="http://www.w3.org/2000/svg" xmlns:xlink="http://www.w3.org/1999/xlink"
	 x="0px" y="0px" viewBox="0 0 32 32" xml:space="preserve">
<path d="M14.5,11.5c-0.4-1.4-1.1-1.8-2.1-1.8c-0.1,0-0.2,0-0.3,0c-0.4,0.1-0.8,0.5-1,1c-0.2,0.6-0.2,1.1,0,1.8c0.3,1.2,1.1,2,2,2
	c0.1,0,0.2,0,0.3,0C14.3,14.2,14.8,12.8,14.5,11.5z M16,0C7.1,0,0,7.1,0,16c0,8.8,7.1,16,16,16c8.8,0,16-7.1,16-16
	C31.9,7.1,24.8,0,16,0z M15,22.8c-1,0.5-2.1,0.5-2.5,0.5c-0.1,0-0.1,0-0.1,0s0,0-0.1,0c-0.7,0-3.9-0.1-3.9-3.1
	c0-2.9,3.5-3.1,4.6-3.1l0,0c-0.6-0.8-0.5-1.7-0.5-1.7c-0.1,0-0.1,0-0.2,0c-0.4,0-1.2-0.1-1.9-0.5c-0.8-0.5-1.2-1.4-1.2-2.7
	c0-3.5,3.9-3.7,3.9-3.7H17v0.1c0,0.4-0.8,0.5-1.3,0.6c-0.2,0-0.5,0.1-0.6,0.1c1,0.5,1.1,1.3,1.1,2.6c0,1.4-0.5,2.1-1.1,2.6
	c-0.4,0.3-0.6,0.6-0.6,0.9c0,0.3,0.4,0.7,0.8,1.1c0.7,0.6,1.7,1.5,1.7,3C17,21.1,16.4,22.2,15,22.8z M23.5,16H21v2.5h-1.6V16h-2.5
	v-1.6h2.5v-2.5H21v2.5h2.5V16z M13,17.9c-0.1,0-0.2,0-0.3,0c-0.7,0.1-1.4,0.3-1.9,0.8c-0.5,0.4-0.7,1-0.7,1.6
	c0.1,1.2,1.3,1.9,2.9,1.8c1.5-0.1,2.5-1,2.5-2.2C15.4,18.7,14.4,17.9,13,17.9z"/>
</svg>
