<?xml version="1.0" encoding="utf-8"?>
<!-- Generator: Adobe Illustrator 18.1.1, SVG Export Plug-In . SVG Version: 6.00 Build 0)  -->
<svg version="1.2" baseProfile="tiny" id="Layer_1" xmlns="http://www.w3.org/2000/svg" xmlns:xlink="http://www.w3.org/1999/xlink"
	 x="0px" y="0px" viewBox="0 0 32 32" xml:space="preserve">
<path fill="#FFFFFF" d="M16,0C7.1,0,0,7.1,0,16c0,8.8,7.1,16,16,16c8.8,0,16-7.1,16-16C31.9,7.1,24.8,0,16,0z M12.1,22.6H8.8V12.2
	h3.2V22.6z M10.4,10.9c-1,0-1.7-0.7-1.7-1.6c0-0.9,0.7-1.6,1.7-1.6c1,0,1.7,0.7,1.7,1.6C12.2,10.2,11.5,10.9,10.4,10.9z M23.9,22.6
	h-3.2v-5.8c0-1.3-0.5-2.3-1.6-2.3c-0.9,0-1.4,0.6-1.7,1.2c-0.1,0.2-0.1,0.5-0.1,0.8v6H14v-7.1c0-1.3,0-2.4-0.1-3.3h2.8l0.1,1.4h0.1
	c0.4-0.7,1.5-1.7,3.2-1.7c2.1,0,3.7,1.4,3.7,4.5V22.6z"/>
</svg>
